<svg version="1.1" id="Layer_1" xmlns="http://www.w3.org/2000/svg" xmlns:xlink="http://www.w3.org/1999/xlink" x="0px" y="0px"
	 width="100%" viewBox="0 0 349 144" enable-background="new 0 0 349 144" xml:space="preserve">
<path fill="#020202" opacity="1.000000" stroke="none" 
	d="
M262.000000,145.000000 
	C174.666672,145.000000 87.833351,145.000000 1.000023,145.000000 
	C1.000015,97.000015 1.000015,49.000031 1.000008,1.000036 
	C117.333305,1.000024 233.666611,1.000024 349.999939,1.000012 
	C349.999939,48.999966 349.999939,96.999931 349.999969,144.999939 
	C320.833344,145.000000 291.666656,145.000000 262.000000,145.000000 
M204.255112,73.003601 
	C199.855743,73.892128 195.456375,74.780655 190.208755,75.840500 
	C187.272064,73.035545 180.652481,71.184746 176.983597,73.930916 
	C175.294342,75.195312 175.347382,78.787445 174.206970,82.712753 
	C181.683456,79.731178 181.811172,83.350777 181.679962,87.581581 
	C181.515121,92.896873 181.640411,98.221153 181.640427,103.541557 
	C181.640457,110.126953 181.640427,116.712349 181.640427,123.120804 
	C185.418442,123.120804 188.512421,123.120804 192.046265,123.120804 
	C192.046265,117.946274 192.046265,113.100708 192.046265,108.034569 
	C199.683029,111.922775 206.828964,112.520660 213.452469,107.231911 
	C220.070068,101.947876 221.100235,94.620102 219.528458,86.904251 
	C217.950104,79.156181 213.121582,74.335770 204.255112,73.003601 
M246.764740,110.424217 
	C249.632187,109.201942 252.499649,107.979660 255.469299,106.713814 
	C259.063782,111.062355 264.856537,112.837387 269.558716,109.757271 
	C271.173859,108.699272 271.049530,104.985748 271.804871,102.168343 
	C264.797913,102.434799 264.780396,102.434837 264.766327,96.546059 
	C264.748260,88.985458 264.761902,81.424789 264.761902,73.334900 
	C260.817017,74.531998 256.774658,71.278542 254.231476,75.799698 
	C245.504410,71.556297 237.638504,72.120804 232.012024,77.415390 
	C226.723328,82.392090 224.896103,93.408890 228.146332,100.722534 
	C231.317444,107.858215 237.501434,111.271240 246.764740,110.424217 
M53.260117,78.350647 
	C51.827686,66.603302 44.566570,61.098717 31.516575,61.867062 
	C20.009890,62.544540 11.545987,69.750969 9.394267,80.702682 
	C7.003062,92.873314 12.192347,104.088165 22.433569,108.777550 
	C30.663855,112.546135 45.295155,112.085358 53.207531,102.695107 
	C51.798347,100.563622 50.355610,98.381386 48.813427,96.048737 
	C43.318958,100.034592 37.708870,102.569328 30.998150,101.445938 
	C23.645781,100.215134 19.320192,94.755493 19.257065,86.452415 
	C19.194544,78.228928 23.495148,72.528175 30.765717,71.196899 
	C38.214634,69.832954 41.736603,72.407234 44.965607,81.906036 
	C47.711761,81.007339 50.472481,80.103882 53.260117,78.350647 
M152.607117,95.102814 
	C158.033493,95.102814 163.459854,95.102814 168.719757,95.102814 
	C171.993912,79.189682 164.128052,70.778801 148.849380,73.011848 
	C141.245728,74.123146 135.363876,80.146866 133.898193,88.323662 
	C132.305191,97.210732 135.682434,105.095001 142.684586,108.835754 
	C150.111816,112.803596 162.231125,111.501137 169.170715,105.812866 
	C168.003372,103.758118 166.810928,101.659187 165.642349,99.602249 
	C152.543488,105.100166 145.274551,103.511894 144.663116,95.102814 
	C146.999329,95.102814 149.325226,95.102814 152.607117,95.102814 
M128.985809,105.400215 
	C128.896851,104.284004 128.807907,103.167793 128.689072,101.676437 
	C123.783325,103.620827 122.526863,101.594383 122.681419,97.162918 
	C122.831085,92.871582 122.793449,88.463211 121.984428,84.270973 
	C120.051552,74.254921 110.358040,69.900200 101.310669,74.671913 
	C100.019073,75.353119 98.841614,76.250717 97.342133,77.222649 
	C97.093903,75.873062 96.901825,74.828812 96.723137,73.857315 
	C93.455223,73.857315 90.358810,73.857315 87.014442,73.857315 
	C87.014442,80.149956 87.014442,86.128288 87.014442,92.106621 
	C87.014442,98.035591 87.014442,103.964561 87.014442,109.882156 
	C90.673988,109.882156 93.735130,109.882156 97.027367,109.882156 
	C97.027367,103.119362 96.918556,96.652451 97.065422,90.191345 
	C97.164215,85.845085 100.848846,82.331970 105.040375,82.191284 
	C109.478638,82.042313 111.976570,84.551804 112.346062,89.787827 
	C112.532990,92.436905 112.332657,95.111420 112.459953,97.767120 
	C112.586761,100.412468 112.509125,103.161179 113.221893,105.665092 
	C114.642387,110.655212 118.758125,111.520927 123.186058,110.873489 
	C125.811043,110.489670 129.785400,111.219925 128.985809,105.400215 
M341.686401,91.808167 
	C337.354645,90.247253 332.978668,88.795380 328.715088,87.066368 
	C327.221100,86.460518 326.003418,85.173302 324.659576,84.197227 
	C326.184601,83.200623 327.757416,81.300964 329.225586,81.378647 
	C333.439880,81.601646 337.611816,82.625099 342.113068,83.386856 
	C342.838928,80.994247 343.635040,78.370049 344.551819,75.348122 
	C335.799072,72.983864 327.600891,71.067619 319.543335,75.953629 
	C315.736298,78.262177 314.420288,81.823341 314.689270,86.167320 
	C314.958557,90.516930 317.304138,93.326424 321.180664,94.764198 
	C323.966248,95.797371 326.991241,96.170563 329.817932,97.112663 
	C331.663147,97.727661 333.344513,98.834167 336.147888,100.250145 
	C328.682831,104.942360 322.845428,101.159874 316.760437,99.921600 
	C316.195709,102.757324 315.692871,105.282143 315.171265,107.901268 
	C321.840851,110.659447 328.112061,111.885880 334.681763,110.433861 
	C344.053864,108.362457 347.212982,100.680801 341.686401,91.808167 
M301.512390,73.892014 
	C296.729126,73.839790 291.842041,73.142593 287.187775,73.891724 
	C280.759796,74.926353 277.047516,79.662613 277.076935,85.104057 
	C277.106903,90.646675 280.330841,94.149879 286.982910,95.849442 
	C289.392822,96.465164 291.886871,96.854385 294.190186,97.742180 
	C295.378754,98.200294 296.233459,99.524605 297.239014,100.457550 
	C296.040070,101.195610 294.921600,102.266022 293.620239,102.581093 
	C292.234283,102.916649 290.632050,102.737961 289.200623,102.429428 
	C286.012482,101.742218 282.871948,100.834076 279.509247,99.963470 
	C279.271362,101.131264 279.263519,102.179092 278.850067,103.029762 
	C276.732910,107.385437 278.886963,109.380432 282.870361,109.726555 
	C287.946533,110.167641 293.150269,110.720901 298.147919,110.068382 
	C303.860168,109.322556 306.992218,105.040962 307.176025,99.753326 
	C307.371277,94.137039 304.898376,90.871376 298.786621,89.025139 
	C295.767456,88.113106 292.601227,87.666573 289.622650,86.653366 
	C288.613861,86.310211 287.657104,84.970757 287.327576,83.888390 
	C287.195435,83.454292 288.716797,82.082314 289.661102,81.849564 
	C291.384094,81.424881 293.286652,81.215797 295.026642,81.484482 
	C298.225708,81.978447 301.361206,82.884003 304.690216,83.656784 
	C305.531799,80.908089 306.330841,78.298363 307.190186,75.491684 
	C305.174011,74.890152 303.756012,74.467079 301.512390,73.892014 
M231.642136,43.332729 
	C234.854645,37.918995 234.535645,34.280174 230.556381,30.948042 
	C226.888855,27.876947 221.204269,28.070278 217.131866,30.902342 
	C215.673920,31.916229 213.446320,32.345387 211.627396,32.218525 
	C206.530655,31.863047 201.936584,34.800007 201.113632,39.395466 
	C200.335922,43.738316 203.537140,47.759666 208.685394,48.889439 
	C209.574036,49.084446 210.474136,49.227200 211.228287,49.367855 
	C210.927933,54.994396 213.226974,58.747852 218.066910,60.696838 
	C222.688232,62.557808 227.016098,61.578014 230.438049,58.003117 
	C234.233093,54.038445 233.983215,49.669582 230.985001,45.268871 
	C230.788803,44.980881 231.051437,44.380291 231.642136,43.332729 
M238.296326,36.468681 
	C237.872269,42.480782 237.448212,48.492882 237.021133,54.547832 
	C243.758835,55.936325 247.735901,53.618866 250.520020,48.809399 
	C251.321854,49.200649 251.890320,49.563293 252.510941,49.767403 
	C257.549713,51.424553 262.580536,49.297508 264.039032,44.921143 
	C265.424255,40.764706 263.178223,37.336712 258.010773,35.014885 
	C256.897949,34.514870 256.078400,32.932926 255.535172,31.672108 
	C253.640945,27.275591 249.299973,24.956751 244.563660,26.017195 
	C239.870880,27.067894 237.680389,30.355320 238.296326,36.468681 
M173.419540,44.781704 
	C176.568268,50.526596 179.614471,51.498756 187.105591,49.149456 
	C192.150681,56.082314 197.735016,57.088310 203.668610,52.133221 
	C195.819336,45.419357 195.175262,42.656227 199.024811,33.361023 
	C199.378311,32.507416 199.228149,31.127947 198.760574,30.306440 
	C196.726471,26.732552 193.439392,25.551825 189.453659,25.848412 
	C181.904282,26.410185 182.008255,36.054806 175.219315,37.867767 
	C174.065079,38.175999 173.823853,41.903248 173.419540,44.781704 
M75.453903,102.324951 
	C72.289726,102.751984 71.958084,100.801369 71.973190,98.351524 
	C72.023140,90.247696 71.992035,82.143379 71.992035,73.918625 
	C68.501762,73.918625 65.307999,73.918625 61.903122,73.918625 
	C61.903122,83.558952 61.703503,92.841805 61.964401,102.111694 
	C62.184956,109.947952 70.447105,114.051048 77.224556,109.958794 
	C79.339767,108.681625 78.802177,103.925835 75.453903,102.324951 
M237.993210,19.980190 
	C237.918350,13.562874 235.323685,10.129175 229.966782,9.358272 
	C225.016418,8.645872 220.903305,12.090334 219.422165,18.188711 
	C212.745575,20.254042 210.926239,22.556011 211.797974,28.172255 
	C215.487961,26.917362 219.110535,24.804710 222.804810,24.670807 
	C226.684723,24.530178 230.633362,26.285057 235.127319,27.347633 
	C236.533325,26.122641 238.716965,24.220133 241.077377,22.163599 
	C240.045044,21.609251 239.188675,21.149399 237.993210,19.980190 
M213.541580,124.193352 
	C212.673538,128.721664 219.867798,137.542389 224.267975,137.315689 
	C224.918777,137.282150 225.584000,137.142578 226.202850,136.934174 
	C232.459702,134.827271 227.628586,129.065598 229.813644,125.475639 
	C230.281448,124.707069 228.705399,122.370056 227.643021,121.118935 
	C227.027313,120.393806 225.426407,119.903328 224.496704,120.153618 
	C220.964249,121.104568 217.524658,122.400406 213.541580,124.193352 
M290.624451,35.750343 
	C286.884674,38.744202 286.725983,41.239330 289.891571,43.521572 
	C291.265625,44.512196 292.046082,46.378559 293.464294,47.243301 
	C295.640442,48.570148 298.204468,50.335777 300.476959,50.170441 
	C303.653442,49.939323 304.867920,47.150322 304.188354,43.799870 
	C303.950439,42.627064 304.450195,41.318958 304.304932,40.109669 
	C304.089325,38.315159 304.174072,35.789093 303.082886,34.968971 
	C301.676849,33.912209 299.215271,33.920746 297.245667,34.048119 
	C295.263275,34.176323 293.326721,35.012684 290.624451,35.750343 
M206.191269,28.630491 
	C207.986725,24.143463 209.782181,19.656435 212.080902,13.911683 
	C210.926529,12.007135 207.431396,10.255424 203.891602,11.482576 
	C200.986038,12.489850 198.692764,15.407956 196.284714,17.647495 
	C194.990921,18.850760 194.026886,20.408623 193.538986,21.021490 
	C196.468719,23.278481 199.466873,25.670643 202.568298,27.920424 
	C203.360947,28.495415 204.480484,28.619755 206.191269,28.630491 
M166.323334,13.067475 
	C165.271011,12.479129 164.127502,12.008986 163.183182,11.280613 
	C160.171707,8.957765 157.282547,9.387044 155.994156,12.820944 
	C154.961548,15.573040 154.255905,18.540043 153.995850,21.464205 
	C153.728058,24.475559 157.109360,26.012249 160.152374,24.566725 
	C161.237183,24.051405 162.417618,23.732973 163.488785,23.194242 
	C165.620255,22.122272 168.510376,21.465275 169.613190,19.710539 
	C171.084488,17.369522 170.203796,14.532005 166.323334,13.067475 
M155.685425,53.993473 
	C159.309677,54.428463 161.400833,51.380356 160.094345,49.419392 
	C158.448120,46.948521 154.608307,45.939129 151.714905,44.299191 
	C150.709793,47.393291 148.484268,50.711952 149.002029,53.525845 
	C149.681198,57.216972 152.809662,54.763401 155.685425,53.993473 
M70.988739,59.440460 
	C69.557297,59.065552 68.102699,58.309200 66.699188,58.394394 
	C63.689819,58.577061 61.001804,59.635761 61.132206,63.376793 
	C61.256424,66.940384 63.649811,68.203766 66.830360,68.291168 
	C71.933632,68.431412 73.782379,65.125130 70.988739,59.440460 
z"/>
<path fill="#F7F7F7" opacity="1.000000" stroke="none" 
	d="
M204.681458,73.033478 
	C213.121582,74.335770 217.950104,79.156181 219.528458,86.904251 
	C221.100235,94.620102 220.070068,101.947876 213.452469,107.231911 
	C206.828964,112.520660 199.683029,111.922775 192.046265,108.034569 
	C192.046265,113.100708 192.046265,117.946274 192.046265,123.120804 
	C188.512421,123.120804 185.418442,123.120804 181.640427,123.120804 
	C181.640427,116.712349 181.640457,110.126953 181.640427,103.541557 
	C181.640411,98.221153 181.515121,92.896873 181.679962,87.581581 
	C181.811172,83.350777 181.683456,79.731178 174.206970,82.712753 
	C175.347382,78.787445 175.294342,75.195312 176.983597,73.930916 
	C180.652481,71.184746 187.272064,73.035545 190.208755,75.840500 
	C195.456375,74.780655 199.855743,73.892128 204.681458,73.033478 
M203.665848,101.734901 
	C210.125656,99.831841 211.390717,92.085487 208.996490,86.782623 
	C207.158401,82.711540 202.245255,80.973511 197.013489,81.996826 
	C192.070068,82.963737 191.268860,86.186729 191.765091,90.437622 
	C191.937271,91.912659 191.986923,93.455338 191.756973,94.914223 
	C190.988678,99.788803 193.920135,101.441483 197.909103,102.041862 
	C199.520065,102.284317 201.210251,102.000404 203.665848,101.734901 
z"/>
<path fill="#F6F6F6" opacity="1.000000" stroke="none" 
	d="
M246.356171,110.485779 
	C237.501434,111.271240 231.317444,107.858215 228.146332,100.722534 
	C224.896103,93.408890 226.723328,82.392090 232.012024,77.415390 
	C237.638504,72.120804 245.504410,71.556297 254.231476,75.799698 
	C256.774658,71.278542 260.817017,74.531998 264.761902,73.334900 
	C264.761902,81.424789 264.748260,88.985458 264.766327,96.546059 
	C264.780396,102.434837 264.797913,102.434799 271.804871,102.168343 
	C271.049530,104.985748 271.173859,108.699272 269.558716,109.757271 
	C264.856537,112.837387 259.063782,111.062355 255.469299,106.713814 
	C252.499649,107.979660 249.632187,109.201942 246.356171,110.485779 
M254.857697,97.808563 
	C254.861450,94.330246 255.064941,90.834976 254.771683,87.381882 
	C254.652588,85.979408 253.587067,83.608200 252.721344,83.498436 
	C248.807831,83.002274 244.488098,82.173790 240.932800,83.343605 
	C237.067734,84.615356 236.259369,88.990143 236.577393,93.047310 
	C236.887085,96.998123 238.639053,100.111618 242.481369,101.431694 
	C247.029800,102.994385 251.274048,102.325523 254.857697,97.808563 
z"/>
<path fill="#F7F7F7" opacity="1.000000" stroke="none" 
	d="
M53.246658,78.775528 
	C50.472481,80.103882 47.711761,81.007339 44.965607,81.906036 
	C41.736603,72.407234 38.214634,69.832954 30.765717,71.196899 
	C23.495148,72.528175 19.194544,78.228928 19.257065,86.452415 
	C19.320192,94.755493 23.645781,100.215134 30.998150,101.445938 
	C37.708870,102.569328 43.318958,100.034592 48.813427,96.048737 
	C50.355610,98.381386 51.798347,100.563622 53.207531,102.695107 
	C45.295155,112.085358 30.663855,112.546135 22.433569,108.777550 
	C12.192347,104.088165 7.003062,92.873314 9.394267,80.702682 
	C11.545987,69.750969 20.009890,62.544540 31.516575,61.867062 
	C44.566570,61.098717 51.827686,66.603302 53.246658,78.775528 
z"/>
<path fill="#F5F5F5" opacity="1.000000" stroke="none" 
	d="
M152.129120,95.102814 
	C149.325226,95.102814 146.999329,95.102814 144.663116,95.102814 
	C145.274551,103.511894 152.543488,105.100166 165.642349,99.602249 
	C166.810928,101.659187 168.003372,103.758118 169.170715,105.812866 
	C162.231125,111.501137 150.111816,112.803596 142.684586,108.835754 
	C135.682434,105.095001 132.305191,97.210732 133.898193,88.323662 
	C135.363876,80.146866 141.245728,74.123146 148.849380,73.011848 
	C164.128052,70.778801 171.993912,79.189682 168.719757,95.102814 
	C163.459854,95.102814 158.033493,95.102814 152.129120,95.102814 
M146.729660,87.451851 
	C151.111847,87.451851 155.494019,87.451851 159.982666,87.451851 
	C160.089722,82.542534 157.385147,81.164429 153.756500,80.960464 
	C149.729736,80.734146 146.179337,81.627411 144.776978,86.055016 
	C144.678284,86.366615 145.437958,86.950104 146.729660,87.451851 
z"/>
<path fill="#F6F6F6" opacity="1.000000" stroke="none" 
	d="
M129.036682,105.849121 
	C129.785400,111.219925 125.811043,110.489670 123.186058,110.873489 
	C118.758125,111.520927 114.642387,110.655212 113.221893,105.665092 
	C112.509125,103.161179 112.586761,100.412468 112.459953,97.767120 
	C112.332657,95.111420 112.532990,92.436905 112.346062,89.787827 
	C111.976570,84.551804 109.478638,82.042313 105.040375,82.191284 
	C100.848846,82.331970 97.164215,85.845085 97.065422,90.191345 
	C96.918556,96.652451 97.027367,103.119362 97.027367,109.882156 
	C93.735130,109.882156 90.673988,109.882156 87.014442,109.882156 
	C87.014442,103.964561 87.014442,98.035591 87.014442,92.106621 
	C87.014442,86.128288 87.014442,80.149956 87.014442,73.857315 
	C90.358810,73.857315 93.455223,73.857315 96.723137,73.857315 
	C96.901825,74.828812 97.093903,75.873062 97.342133,77.222649 
	C98.841614,76.250717 100.019073,75.353119 101.310669,74.671913 
	C110.358040,69.900200 120.051552,74.254921 121.984428,84.270973 
	C122.793449,88.463211 122.831085,92.871582 122.681419,97.162918 
	C122.526863,101.594383 123.783325,103.620827 128.689072,101.676437 
	C128.807907,103.167793 128.896851,104.284004 129.036682,105.849121 
z"/>
<path fill="#F5F5F5" opacity="1.000000" stroke="none" 
	d="
M341.950500,92.074951 
	C347.212982,100.680801 344.053864,108.362457 334.681763,110.433861 
	C328.112061,111.885880 321.840851,110.659447 315.171265,107.901268 
	C315.692871,105.282143 316.195709,102.757324 316.760437,99.921600 
	C322.845428,101.159874 328.682831,104.942360 336.147888,100.250145 
	C333.344513,98.834167 331.663147,97.727661 329.817932,97.112663 
	C326.991241,96.170563 323.966248,95.797371 321.180664,94.764198 
	C317.304138,93.326424 314.958557,90.516930 314.689270,86.167320 
	C314.420288,81.823341 315.736298,78.262177 319.543335,75.953629 
	C327.600891,71.067619 335.799072,72.983864 344.551819,75.348122 
	C343.635040,78.370049 342.838928,80.994247 342.113068,83.386856 
	C337.611816,82.625099 333.439880,81.601646 329.225586,81.378647 
	C327.757416,81.300964 326.184601,83.200623 324.659576,84.197235 
	C326.003418,85.173302 327.221100,86.460518 328.715088,87.066368 
	C332.978668,88.795380 337.354645,90.247253 341.950500,92.074951 
z"/>
<path fill="#F5F5F5" opacity="1.000000" stroke="none" 
	d="
M301.925171,73.968010 
	C303.756012,74.467079 305.174011,74.890152 307.190186,75.491684 
	C306.330841,78.298363 305.531799,80.908089 304.690216,83.656784 
	C301.361206,82.884003 298.225708,81.978447 295.026642,81.484482 
	C293.286652,81.215797 291.384094,81.424881 289.661102,81.849564 
	C288.716797,82.082314 287.195435,83.454292 287.327576,83.888390 
	C287.657104,84.970757 288.613861,86.310211 289.622650,86.653366 
	C292.601227,87.666573 295.767456,88.113106 298.786621,89.025139 
	C304.898376,90.871376 307.371277,94.137039 307.176025,99.753326 
	C306.992218,105.040962 303.860168,109.322556 298.147919,110.068382 
	C293.150269,110.720901 287.946533,110.167641 282.870361,109.726555 
	C278.886963,109.380432 276.732910,107.385437 278.850067,103.029762 
	C279.263519,102.179092 279.271362,101.131264 279.509247,99.963470 
	C282.871948,100.834076 286.012482,101.742218 289.200623,102.429428 
	C290.632050,102.737961 292.234283,102.916649 293.620239,102.581093 
	C294.921600,102.266022 296.040070,101.195610 297.239014,100.457550 
	C296.233459,99.524605 295.378754,98.200294 294.190186,97.742180 
	C291.886871,96.854385 289.392822,96.465164 286.982910,95.849442 
	C280.330841,94.149879 277.106903,90.646675 277.076935,85.104057 
	C277.047516,79.662613 280.759796,74.926353 287.187775,73.891724 
	C291.842041,73.142593 296.729126,73.839790 301.925171,73.968010 
z"/>
<path fill="#F9F9F9" opacity="1.000000" stroke="none" 
	d="
M231.371399,43.628922 
	C231.051437,44.380291 230.788803,44.980881 230.985001,45.268871 
	C233.983215,49.669582 234.233093,54.038445 230.438049,58.003117 
	C227.016098,61.578014 222.688232,62.557808 218.066910,60.696838 
	C213.226974,58.747852 210.927933,54.994396 211.228287,49.367855 
	C210.474136,49.227200 209.574036,49.084446 208.685394,48.889439 
	C203.537140,47.759666 200.335922,43.738316 201.113632,39.395466 
	C201.936584,34.800007 206.530655,31.863047 211.627396,32.218525 
	C213.446320,32.345387 215.673920,31.916229 217.131866,30.902342 
	C221.204269,28.070278 226.888855,27.876947 230.556381,30.948042 
	C234.535645,34.280174 234.854645,37.918995 231.371399,43.628922 
z"/>
<path fill="#F8F8F8" opacity="1.000000" stroke="none" 
	d="
M238.240356,36.029835 
	C237.680389,30.355320 239.870880,27.067894 244.563660,26.017195 
	C249.299973,24.956751 253.640945,27.275591 255.535172,31.672108 
	C256.078400,32.932926 256.897949,34.514870 258.010773,35.014885 
	C263.178223,37.336712 265.424255,40.764706 264.039032,44.921143 
	C262.580536,49.297508 257.549713,51.424553 252.510941,49.767403 
	C251.890320,49.563293 251.321854,49.200649 250.520020,48.809399 
	C247.735901,53.618866 243.758835,55.936325 237.021133,54.547832 
	C237.448212,48.492882 237.872269,42.480782 238.240356,36.029835 
z"/>
<path fill="#F7F7F7" opacity="1.000000" stroke="none" 
	d="
M173.290192,44.416321 
	C173.823853,41.903248 174.065079,38.175999 175.219315,37.867767 
	C182.008255,36.054806 181.904282,26.410185 189.453659,25.848412 
	C193.439392,25.551825 196.726471,26.732552 198.760574,30.306440 
	C199.228149,31.127947 199.378311,32.507416 199.024811,33.361023 
	C195.175262,42.656227 195.819336,45.419357 203.668610,52.133221 
	C197.735016,57.088310 192.150681,56.082314 187.105591,49.149456 
	C179.614471,51.498756 176.568268,50.526596 173.290192,44.416321 
z"/>
<path fill="#F9F9F9" opacity="1.000000" stroke="none" 
	d="
M75.898636,102.244141 
	C78.802177,103.925835 79.339767,108.681625 77.224556,109.958794 
	C70.447105,114.051048 62.184956,109.947952 61.964401,102.111694 
	C61.703503,92.841805 61.903122,83.558952 61.903122,73.918625 
	C65.307999,73.918625 68.501762,73.918625 71.992035,73.918625 
	C71.992035,82.143379 72.023140,90.247696 71.973190,98.351524 
	C71.958084,100.801369 72.289726,102.751984 75.898636,102.244141 
z"/>
<path fill="#F6F6F6" opacity="1.000000" stroke="none" 
	d="
M238.162750,20.334867 
	C239.188675,21.149399 240.045044,21.609251 241.077377,22.163599 
	C238.716965,24.220133 236.533325,26.122641 235.127319,27.347633 
	C230.633362,26.285057 226.684723,24.530178 222.804810,24.670807 
	C219.110535,24.804710 215.487961,26.917362 211.797974,28.172255 
	C210.926239,22.556011 212.745575,20.254042 219.422165,18.188711 
	C220.903305,12.090334 225.016418,8.645872 229.966782,9.358272 
	C235.323685,10.129175 237.918350,13.562874 238.162750,20.334867 
z"/>
<path fill="#F3F3F3" opacity="1.000000" stroke="none" 
	d="
M213.795959,123.880325 
	C217.524658,122.400406 220.964249,121.104568 224.496704,120.153618 
	C225.426407,119.903328 227.027313,120.393806 227.643021,121.118935 
	C228.705399,122.370056 230.281448,124.707069 229.813644,125.475639 
	C227.628586,129.065598 232.459702,134.827271 226.202850,136.934174 
	C225.584000,137.142578 224.918777,137.282150 224.267975,137.315689 
	C219.867798,137.542389 212.673538,128.721664 213.795959,123.880325 
z"/>
<path fill="#F4F4F4" opacity="1.000000" stroke="none" 
	d="
M290.997253,35.644539 
	C293.326721,35.012684 295.263275,34.176323 297.245667,34.048119 
	C299.215271,33.920746 301.676849,33.912209 303.082886,34.968971 
	C304.174072,35.789093 304.089325,38.315159 304.304932,40.109669 
	C304.450195,41.318958 303.950439,42.627064 304.188354,43.799870 
	C304.867920,47.150322 303.653442,49.939323 300.476959,50.170441 
	C298.204468,50.335777 295.640442,48.570148 293.464294,47.243301 
	C292.046082,46.378559 291.265625,44.512196 289.891571,43.521572 
	C286.725983,41.239330 286.884674,38.744202 290.997253,35.644539 
z"/>
<path fill="#F1F1F1" opacity="1.000000" stroke="none" 
	d="
M205.820557,28.790813 
	C204.480484,28.619755 203.360947,28.495415 202.568298,27.920424 
	C199.466873,25.670643 196.468719,23.278481 193.538986,21.021490 
	C194.026886,20.408623 194.990921,18.850760 196.284714,17.647495 
	C198.692764,15.407956 200.986038,12.489850 203.891602,11.482576 
	C207.431396,10.255424 210.926529,12.007135 212.080902,13.911683 
	C209.782181,19.656435 207.986725,24.143463 205.820557,28.790813 
z"/>
<path fill="#F6F6F6" opacity="1.000000" stroke="none" 
	d="
M166.721924,13.140314 
	C170.203796,14.532005 171.084488,17.369522 169.613190,19.710539 
	C168.510376,21.465275 165.620255,22.122272 163.488785,23.194242 
	C162.417618,23.732973 161.237183,24.051405 160.152374,24.566725 
	C157.109360,26.012249 153.728058,24.475559 153.995850,21.464205 
	C154.255905,18.540043 154.961548,15.573040 155.994156,12.820944 
	C157.282547,9.387044 160.171707,8.957765 163.183182,11.280613 
	C164.127502,12.008986 165.271011,12.479129 166.721924,13.140314 
z"/>
<path fill="#EFEFEF" opacity="1.000000" stroke="none" 
	d="
M155.311462,53.942772 
	C152.809662,54.763401 149.681198,57.216972 149.002029,53.525845 
	C148.484268,50.711952 150.709793,47.393291 151.714905,44.299191 
	C154.608307,45.939129 158.448120,46.948521 160.094345,49.419392 
	C161.400833,51.380356 159.309677,54.428463 155.311462,53.942772 
z"/>
<path fill="#EFEFEF" opacity="1.000000" stroke="none" 
	d="
M71.274330,59.693356 
	C73.782379,65.125130 71.933632,68.431412 66.830360,68.291168 
	C63.649811,68.203766 61.256424,66.940384 61.132206,63.376793 
	C61.001804,59.635761 63.689819,58.577061 66.699188,58.394394 
	C68.102699,58.309200 69.557297,59.065552 71.274330,59.693356 
z"/>
<path fill="#050505" opacity="1.000000" stroke="none" 
	d="
M203.265106,101.845467 
	C201.210251,102.000404 199.520065,102.284317 197.909103,102.041862 
	C193.920135,101.441483 190.988678,99.788803 191.756973,94.914223 
	C191.986923,93.455338 191.937271,91.912659 191.765091,90.437622 
	C191.268860,86.186729 192.070068,82.963737 197.013489,81.996826 
	C202.245255,80.973511 207.158401,82.711540 208.996490,86.782623 
	C211.390717,92.085487 210.125656,99.831841 203.265106,101.845467 
z"/>
<path fill="#080808" opacity="1.000000" stroke="none" 
	d="
M254.799286,98.235466 
	C251.274048,102.325523 247.029800,102.994385 242.481369,101.431694 
	C238.639053,100.111618 236.887085,96.998123 236.577393,93.047310 
	C236.259369,88.990143 237.067734,84.615356 240.932800,83.343605 
	C244.488098,82.173790 248.807831,83.002274 252.721344,83.498436 
	C253.587067,83.608200 254.652588,85.979408 254.771683,87.381882 
	C255.064941,90.834976 254.861450,94.330246 254.799286,98.235466 
z"/>
<path fill="#080808" opacity="1.000000" stroke="none" 
	d="
M146.264069,87.429504 
	C145.437958,86.950104 144.678284,86.366615 144.776978,86.055016 
	C146.179337,81.627411 149.729736,80.734146 153.756500,80.960464 
	C157.385147,81.164429 160.089722,82.542534 159.982666,87.451851 
	C155.494019,87.451851 151.111847,87.451851 146.264069,87.429504 
z"/>
</svg>