<svg version="1.1" id="Layer_1" xmlns="http://www.w3.org/2000/svg" xmlns:xlink="http://www.w3.org/1999/xlink" x="0px" y="0px"
	 width="100%" viewBox="0 0 376 134" enable-background="new 0 0 376 134" xml:space="preserve">
<path fill="#D11F41" opacity="1.000000" stroke="none" 
	d="
M377.000000,131.000000 
	C377.000000,132.333328 377.000000,133.666672 377.000000,135.000000 
	C251.666702,135.000000 126.333412,135.000000 1.000085,135.000000 
	C1.000057,90.333382 1.000057,45.666767 1.000028,1.000115 
	C126.333244,1.000077 251.666489,1.000077 376.999878,1.000038 
	C377.000000,2.000000 377.000000,3.000000 376.744812,4.827722 
	C376.328308,6.628124 376.026611,7.600717 376.025970,8.573498 
	C376.001099,47.969387 375.993011,87.365311 376.044250,126.761147 
	C376.046082,128.174515 376.667389,129.587067 377.000000,131.000000 
M149.964157,55.249775 
	C149.729034,55.457222 149.711761,55.700630 150.076614,56.907204 
	C150.076614,65.539841 150.076614,74.172470 150.076614,83.039825 
	C152.037750,82.953339 153.491989,82.889214 154.913147,82.826538 
	C154.913147,73.469872 154.913147,64.392067 154.913147,55.045544 
	C153.131805,55.045544 151.651398,55.045544 149.964157,55.249775 
M162.016388,82.989502 
	C163.437210,82.989502 164.858032,82.989502 166.627518,82.989502 
	C166.627518,77.606705 166.422729,72.792603 166.694733,68.005600 
	C166.898727,64.415276 167.369553,60.665806 172.552277,60.817131 
	C181.423462,61.076160 182.508408,61.742458 182.714798,68.246559 
	C182.866928,73.041382 182.744675,77.844910 182.744675,83.036476 
	C184.645523,82.946609 186.189545,82.873604 187.975769,82.789154 
	C187.975769,77.406197 188.020905,72.440216 187.966019,67.475334 
	C187.864029,58.251328 181.926727,53.286598 172.994278,55.155785 
	C170.802628,55.614403 168.790634,56.931545 166.696045,57.853989 
	C166.769394,57.370331 166.842758,56.886673 166.916107,56.403015 
	C165.029633,55.957314 163.143143,55.511608 160.688660,55.670444 
	C160.458893,62.394501 160.108368,69.117767 160.064651,75.843040 
	C160.049271,78.209633 160.785614,80.581108 162.016388,82.989502 
M199.908188,70.933228 
	C206.513748,70.933228 213.119293,70.933228 219.675827,70.933228 
	C220.284958,62.808361 216.468048,56.898823 209.896255,55.209572 
	C203.196014,53.487305 196.039474,56.814808 193.219254,62.963669 
	C190.396484,69.118103 192.461014,77.050987 197.854828,80.775604 
	C203.998444,85.017990 212.343887,84.270180 218.024658,78.749985 
	C217.209305,77.824547 216.375549,76.878220 215.570480,75.964455 
	C207.740692,80.424377 203.190887,79.978523 198.931732,73.615494 
	C198.948273,72.776222 198.964813,71.936943 199.908188,70.933228 
M312.011719,75.185493 
	C310.971191,73.061340 310.462830,70.155540 308.763702,68.998764 
	C306.300659,67.321884 302.958252,66.962769 300.026978,65.938400 
	C298.069977,65.254509 296.175659,64.391205 294.253326,63.608192 
	C294.437592,62.953270 294.621857,62.298351 294.806122,61.643433 
	C299.198212,61.643433 303.590271,61.643433 308.307526,61.643433 
	C308.855988,60.334160 309.542328,58.695766 310.341797,56.787304 
	C304.104919,53.909111 298.103912,53.115585 291.933075,55.763073 
	C288.484253,57.242729 286.102142,59.721546 286.293152,63.724983 
	C286.481262,67.667397 288.726471,70.137146 292.561066,71.052887 
	C296.015900,71.877930 299.494751,72.602371 303.042542,73.388817 
	C300.998230,78.078186 298.801697,78.271164 288.215302,74.921288 
	C287.414642,76.727211 286.598114,78.568939 285.735992,80.513458 
	C291.881927,83.716728 297.774689,84.879349 303.940552,82.848564 
	C306.408600,82.035698 308.658783,80.561348 311.644714,79.789230 
	C317.200287,84.436821 323.934082,84.110130 330.424683,83.659698 
	C334.192352,83.398239 338.162750,77.654305 337.909515,74.156326 
	C337.580658,69.613907 334.656250,67.545509 330.484558,66.760147 
	C328.209747,66.331879 325.898041,65.974205 323.712341,65.253166 
	C322.682465,64.913414 321.910248,63.792637 321.021271,63.025764 
	C322.154694,62.633461 323.262177,62.109066 324.427673,61.879848 
	C326.171875,61.536812 328.465363,60.583988 329.639435,61.314388 
	C335.787659,65.139267 334.934235,59.344948 336.926971,56.671364 
	C330.281860,53.988377 324.075806,52.977272 317.760651,56.001259 
	C314.063690,57.771561 312.255249,60.729290 312.936981,64.880859 
	C313.548676,68.605492 315.812073,70.569077 319.567627,71.325294 
	C323.077301,72.032028 326.473785,73.300812 330.504639,74.495453 
	C326.919098,78.283188 323.318420,76.901260 319.840637,76.520088 
	C317.242828,76.235359 314.623871,76.143715 312.011719,75.185493 
M254.606506,75.081497 
	C257.261902,82.471306 264.648712,86.502068 272.716217,81.951645 
	C273.347107,81.595787 274.207916,81.186951 274.823090,81.344559 
	C277.310455,81.981865 279.743469,82.831398 282.789642,83.789047 
	C282.789642,76.760674 283.005585,71.119583 282.718170,65.504257 
	C282.505829,61.355572 280.823822,57.693199 276.700378,55.873047 
	C269.793427,52.824192 263.304443,54.041397 256.681580,57.727100 
	C257.830048,59.870625 258.726562,61.543888 259.436340,62.868629 
	C263.263916,62.222969 266.479431,61.374775 269.716003,61.284782 
	C271.014343,61.248680 272.359009,62.879505 273.682617,63.751629 
	C273.098877,64.565796 272.628174,65.963112 271.913452,66.101669 
	C266.307404,67.188423 260.654633,68.034004 254.999741,68.192024 
	C249.393356,54.237862 242.768219,51.025345 231.669113,56.865067 
	C229.541397,52.834522 225.996475,55.372746 222.556656,55.669823 
	C222.421326,67.530045 222.273148,79.390182 222.189835,91.250771 
	C222.185806,91.825523 222.751740,92.404274 223.793915,93.162331 
	C226.371262,93.162331 228.948624,93.162331 231.838043,93.162331 
	C231.838043,89.518341 231.838043,86.424706 231.838043,82.432358 
	C241.145264,85.058327 248.839127,83.425896 254.606506,75.081497 
M91.226852,83.608788 
	C92.429207,81.136559 93.631561,78.664330 95.017433,75.814751 
	C98.021645,76.550964 101.389275,77.376236 104.855835,78.225754 
	C104.855835,71.244888 104.855835,64.802299 104.855835,58.057858 
	C101.385323,59.101707 98.160812,60.071568 94.986176,61.026428 
	C94.186317,58.795536 93.754631,57.059444 92.973465,55.498222 
	C87.514313,44.587761 74.907394,38.142979 63.578720,40.390297 
	C50.684307,42.948223 41.376209,52.918003 40.142075,65.492989 
	C38.963554,77.501297 46.344746,89.401283 57.836563,93.937065 
	C60.548588,95.007492 63.432507,97.001709 66.043236,96.726898 
	C75.747810,95.705330 84.855324,92.906693 91.226852,83.608788 
M119.119606,67.809532 
	C119.376884,78.513092 124.942505,83.798676 136.931793,83.434341 
	C139.861572,83.345314 142.699722,80.240440 146.220078,78.140335 
	C144.012756,76.584274 142.950562,75.835472 141.748581,74.988121 
	C141.055984,75.649979 140.528320,76.265999 139.895020,76.741257 
	C135.872498,79.759956 131.022964,79.680626 127.540184,76.575455 
	C124.518127,73.881081 123.459541,67.868813 125.775261,64.141113 
	C128.259644,60.141888 131.783279,59.590187 136.486832,60.535614 
	C138.960251,61.032784 142.391739,65.909721 145.063446,60.328278 
	C141.520325,54.967449 136.138672,54.175991 130.549515,55.205173 
	C124.205635,56.373333 120.531090,60.701332 119.119606,67.809532 
M152.453247,50.873108 
	C154.507034,49.313297 157.594299,47.995697 155.442276,44.765171 
	C154.818848,43.829296 151.877533,43.301472 150.886139,43.947746 
	C147.049515,46.448826 150.302658,48.612003 152.453247,50.873108 
z"/>
<path fill="#D32C4A" opacity="1.000000" stroke="none" 
	d="
M377.000000,130.531342 
	C376.667389,129.587067 376.046082,128.174515 376.044250,126.761147 
	C375.993011,87.365311 376.001099,47.969387 376.025970,8.573498 
	C376.026611,7.600717 376.328308,6.628124 376.744812,5.327721 
	C377.000000,46.687561 377.000000,88.375122 377.000000,130.531342 
z"/>
<path fill="#FDF8F9" opacity="1.000000" stroke="none" 
	d="
M91.032974,83.922050 
	C84.855324,92.906693 75.747810,95.705330 66.043236,96.726898 
	C63.432507,97.001709 60.548588,95.007492 57.836563,93.937065 
	C46.344746,89.401283 38.963554,77.501297 40.142075,65.492989 
	C41.376209,52.918003 50.684307,42.948223 63.578720,40.390297 
	C74.907394,38.142979 87.514313,44.587761 92.973465,55.498222 
	C93.754631,57.059444 94.186317,58.795536 94.986176,61.026428 
	C98.160812,60.071568 101.385323,59.101707 104.855835,58.057858 
	C104.855835,64.802299 104.855835,71.244888 104.855835,78.225754 
	C101.389275,77.376236 98.021645,76.550964 95.017433,75.814751 
	C93.631561,78.664330 92.429207,81.136559 91.032974,83.922050 
M69.332108,50.433113 
	C66.125954,51.111423 62.678696,51.256840 59.762592,52.576221 
	C53.188847,55.550499 49.726967,62.899891 50.720249,70.392685 
	C51.686001,77.677826 56.768169,83.524361 63.738148,84.995850 
	C73.539604,87.065094 80.409569,83.026497 84.750435,74.165009 
	C86.671104,74.754929 88.371170,75.277092 89.862305,75.735085 
	C89.862305,71.272591 89.862305,66.873466 89.862305,64.285721 
	C86.920097,62.023006 84.596794,61.011055 83.491440,59.239265 
	C80.318474,54.153309 75.674347,51.743752 69.332108,50.433113 
z"/>
<path fill="#FDF7F7" opacity="1.000000" stroke="none" 
	d="
M223.074417,55.024010 
	C225.996475,55.372746 229.541397,52.834522 231.667755,56.871395 
	C242.768219,51.025345 249.393356,54.237862 254.982330,68.919800 
	C254.608429,71.416595 254.251923,73.185616 253.895432,74.954643 
	C248.839127,83.425896 241.145264,85.058327 231.838043,82.432358 
	C231.838043,86.424706 231.838043,89.518341 231.838043,93.162331 
	C228.948624,93.162331 226.371262,93.162331 223.437302,92.604828 
	C223.078598,79.706215 223.076508,67.365112 223.074417,55.024010 
M238.518097,76.754852 
	C242.873047,76.557587 245.520599,73.878456 245.572556,69.959045 
	C245.606735,67.381218 244.163498,64.012543 242.217514,62.428139 
	C240.709473,61.200352 236.591599,61.205151 235.090805,62.437035 
	C233.182571,64.003349 232.098877,67.296295 231.828415,69.963333 
	C231.441269,73.781128 234.110229,75.895744 238.518097,76.754852 
z"/>
<path fill="#FDF6F6" opacity="1.000000" stroke="none" 
	d="
M254.250977,75.018066 
	C254.251923,73.185616 254.608429,71.416595 254.990601,69.300751 
	C260.654633,68.034004 266.307404,67.188423 271.913452,66.101669 
	C272.628174,65.963112 273.098877,64.565796 273.682617,63.751625 
	C272.359009,62.879505 271.014343,61.248680 269.716003,61.284782 
	C266.479431,61.374775 263.263916,62.222969 259.436340,62.868629 
	C258.726562,61.543888 257.830048,59.870625 256.681580,57.727100 
	C263.304443,54.041397 269.793427,52.824192 276.700378,55.873047 
	C280.823822,57.693199 282.505829,61.355572 282.718170,65.504257 
	C283.005585,71.119583 282.789642,76.760674 282.789642,83.789047 
	C279.743469,82.831398 277.310455,81.981865 274.823090,81.344559 
	C274.207916,81.186951 273.347107,81.595787 272.716217,81.951645 
	C264.648712,86.502068 257.261902,82.471306 254.250977,75.018066 
M266.896057,77.834381 
	C271.262543,78.190979 274.292786,76.996475 274.076782,71.440674 
	C271.658051,71.440674 269.329620,71.035637 267.209961,71.528481 
	C263.294312,72.438911 263.042175,74.436424 266.896057,77.834381 
z"/>
<path fill="#FCF3F4" opacity="1.000000" stroke="none" 
	d="
M312.014313,75.966087 
	C314.623871,76.143715 317.242828,76.235359 319.840637,76.520088 
	C323.318420,76.901260 326.919098,78.283188 330.504639,74.495453 
	C326.473785,73.300812 323.077301,72.032028 319.567627,71.325294 
	C315.812073,70.569077 313.548676,68.605492 312.936981,64.880859 
	C312.255249,60.729290 314.063690,57.771561 317.760651,56.001259 
	C324.075806,52.977272 330.281860,53.988377 336.926971,56.671364 
	C334.934235,59.344948 335.787659,65.139267 329.639435,61.314388 
	C328.465363,60.583988 326.171875,61.536812 324.427673,61.879848 
	C323.262177,62.109066 322.154694,62.633461 321.021271,63.025764 
	C321.910248,63.792637 322.682465,64.913414 323.712341,65.253166 
	C325.898041,65.974205 328.209747,66.331879 330.484558,66.760147 
	C334.656250,67.545509 337.580658,69.613907 337.909515,74.156326 
	C338.162750,77.654305 334.192352,83.398239 330.424683,83.659698 
	C323.934082,84.110130 317.200287,84.436821 311.340027,79.289970 
	C311.361664,77.849174 311.687988,76.907631 312.014313,75.966087 
z"/>
<path fill="#FDF5F6" opacity="1.000000" stroke="none" 
	d="
M312.013000,75.575790 
	C311.687988,76.907631 311.361664,77.849174 311.021729,79.089409 
	C308.658783,80.561348 306.408600,82.035698 303.940552,82.848564 
	C297.774689,84.879349 291.881927,83.716728 285.735992,80.513458 
	C286.598114,78.568939 287.414642,76.727211 288.215302,74.921288 
	C298.801697,78.271164 300.998230,78.078186 303.042542,73.388817 
	C299.494751,72.602371 296.015900,71.877930 292.561066,71.052887 
	C288.726471,70.137146 286.481262,67.667397 286.293152,63.724983 
	C286.102142,59.721546 288.484253,57.242729 291.933075,55.763073 
	C298.103912,53.115585 304.104919,53.909111 310.341797,56.787304 
	C309.542328,58.695766 308.855988,60.334160 308.307526,61.643433 
	C303.590271,61.643433 299.198212,61.643433 294.806122,61.643433 
	C294.621857,62.298351 294.437592,62.953270 294.253326,63.608192 
	C296.175659,64.391205 298.069977,65.254509 300.026978,65.938400 
	C302.958252,66.962769 306.300659,67.321884 308.763702,68.998764 
	C310.462830,70.155540 310.971191,73.061340 312.013000,75.575790 
z"/>
<path fill="#FDF5F6" opacity="1.000000" stroke="none" 
	d="
M198.893768,74.454338 
	C203.190887,79.978523 207.740692,80.424377 215.570480,75.964455 
	C216.375549,76.878220 217.209305,77.824547 218.024658,78.749985 
	C212.343887,84.270180 203.998444,85.017990 197.854828,80.775604 
	C192.461014,77.050987 190.396484,69.118103 193.219254,62.963669 
	C196.039474,56.814808 203.196014,53.487305 209.896255,55.209572 
	C216.468048,56.898823 220.284958,62.808361 219.675827,70.933228 
	C213.119293,70.933228 206.513748,70.933228 199.151611,70.983292 
	C198.561264,72.173691 198.727524,73.314011 198.893768,74.454338 
M199.318329,66.794746 
	C204.229172,66.794746 209.140015,66.794746 214.075211,66.794746 
	C213.568130,61.620159 210.093109,58.777241 205.363174,59.249649 
	C200.833679,59.702034 198.374680,62.274872 199.318329,66.794746 
z"/>
<path fill="#FBF0F1" opacity="1.000000" stroke="none" 
	d="
M161.256668,55.065907 
	C163.143143,55.511608 165.029633,55.957314 166.916107,56.403015 
	C166.842758,56.886673 166.769394,57.370331 166.696045,57.853989 
	C168.790634,56.931545 170.802628,55.614403 172.994278,55.155785 
	C181.926727,53.286598 187.864029,58.251328 187.966019,67.475334 
	C188.020905,72.440216 187.975769,77.406197 187.975769,82.789154 
	C186.189545,82.873604 184.645523,82.946609 182.744675,83.036476 
	C182.744675,77.844910 182.866928,73.041382 182.714798,68.246559 
	C182.508408,61.742458 181.423462,61.076160 172.552277,60.817131 
	C167.369553,60.665806 166.898727,64.415276 166.694733,68.005600 
	C166.422729,72.792603 166.627518,77.606705 166.627518,82.989502 
	C164.858032,82.989502 163.437210,82.989502 161.562332,82.506096 
	C161.157730,73.037094 161.207199,64.051498 161.256668,55.065907 
z"/>
<path fill="#FCF4F4" opacity="1.000000" stroke="none" 
	d="
M119.162270,67.403793 
	C120.531090,60.701332 124.205635,56.373333 130.549515,55.205173 
	C136.138672,54.175991 141.520325,54.967449 145.063446,60.328278 
	C142.391739,65.909721 138.960251,61.032784 136.486832,60.535614 
	C131.783279,59.590187 128.259644,60.141888 125.775261,64.141113 
	C123.459541,67.868813 124.518127,73.881081 127.540184,76.575455 
	C131.022964,79.680626 135.872498,79.759956 139.895020,76.741257 
	C140.528320,76.265999 141.055984,75.649979 141.748581,74.988121 
	C142.950562,75.835472 144.012756,76.584274 146.220078,78.140335 
	C142.699722,80.240440 139.861572,83.345314 136.931793,83.434341 
	C124.942505,83.798676 119.376884,78.513092 119.162270,67.403793 
z"/>
<path fill="#FEFAFA" opacity="1.000000" stroke="none" 
	d="
M150.170990,55.045544 
	C151.651398,55.045544 153.131805,55.045544 154.913147,55.045544 
	C154.913147,64.392067 154.913147,73.469872 154.913147,82.826538 
	C153.491989,82.889214 152.037750,82.953339 150.076614,83.039825 
	C150.076614,74.172470 150.076614,65.539841 150.069809,56.212936 
	C150.063004,55.518673 150.170990,55.045544 150.170990,55.045544 
z"/>
<path fill="#FBEEEF" opacity="1.000000" stroke="none" 
	d="
M152.084595,50.834293 
	C150.302658,48.612003 147.049515,46.448826 150.886139,43.947746 
	C151.877533,43.301472 154.818848,43.829296 155.442276,44.765171 
	C157.594299,47.995697 154.507034,49.313297 152.084595,50.834293 
z"/>
<path fill="#CF0030" opacity="1.000000" stroke="none" 
	d="
M222.815536,55.346916 
	C223.076508,67.365112 223.078598,79.706215 223.066483,92.514236 
	C222.751740,92.404274 222.185806,91.825523 222.189835,91.250771 
	C222.273148,79.390182 222.421326,67.530045 222.815536,55.346916 
z"/>
<path fill="#CF0030" opacity="1.000000" stroke="none" 
	d="
M160.972656,55.368176 
	C161.207199,64.051498 161.157730,73.037094 161.143494,82.486526 
	C160.785614,80.581108 160.049271,78.209633 160.064651,75.843040 
	C160.108368,69.117767 160.458893,62.394501 160.972656,55.368176 
z"/>
<path fill="#CF0030" opacity="1.000000" stroke="none" 
	d="
M198.912750,74.034912 
	C198.727524,73.314011 198.561264,72.173691 198.688187,71.065521 
	C198.964813,71.936943 198.948273,72.776222 198.912750,74.034912 
z"/>
<path fill="#CE002B" opacity="1.000000" stroke="none" 
	d="
M150.067566,55.147659 
	C150.170990,55.045544 150.063004,55.518673 149.987671,55.749336 
	C149.711761,55.700630 149.729034,55.457222 150.067566,55.147659 
z"/>
<path fill="#D22143" opacity="1.000000" stroke="none" 
	d="
M69.719315,50.498558 
	C75.674347,51.743752 80.318474,54.153309 83.491440,59.239265 
	C84.596794,61.011055 86.920097,62.023006 89.862305,64.285721 
	C89.862305,66.873466 89.862305,71.272591 89.862305,75.735085 
	C88.371170,75.277092 86.671104,74.754929 84.750435,74.165009 
	C80.409569,83.026497 73.539604,87.065094 63.738148,84.995850 
	C56.768169,83.524361 51.686001,77.677826 50.720249,70.392685 
	C49.726967,62.899891 53.188847,55.550499 59.762592,52.576221 
	C62.678696,51.256840 66.125954,51.111423 69.719315,50.498558 
M80.251373,63.645760 
	C78.053719,58.154572 73.984154,55.092712 68.091957,55.059666 
	C62.166252,55.026428 58.177689,58.236759 55.827168,63.577812 
	C54.007763,67.712021 54.446579,71.931236 57.367599,75.027504 
	C60.041466,77.861794 64.053307,81.895088 67.019196,81.544060 
	C77.036385,80.358490 82.740463,74.163910 80.251373,63.645760 
z"/>
<path fill="#D22546" opacity="1.000000" stroke="none" 
	d="
M238.139374,76.710541 
	C234.110229,75.895744 231.441269,73.781128 231.828415,69.963333 
	C232.098877,67.296295 233.182571,64.003349 235.090805,62.437035 
	C236.591599,61.205151 240.709473,61.200352 242.217514,62.428139 
	C244.163498,64.012543 245.606735,67.381218 245.572556,69.959045 
	C245.520599,73.878456 242.873047,76.557587 238.139374,76.710541 
z"/>
<path fill="#D32D4B" opacity="1.000000" stroke="none" 
	d="
M266.523682,77.683052 
	C263.042175,74.436424 263.294312,72.438911 267.209961,71.528481 
	C269.329620,71.035637 271.658051,71.440674 274.076782,71.440674 
	C274.292786,76.996475 271.262543,78.190979 266.523682,77.683052 
z"/>
<path fill="#D22445" opacity="1.000000" stroke="none" 
	d="
M199.019012,66.497696 
	C198.374680,62.274872 200.833679,59.702034 205.363174,59.249649 
	C210.093109,58.777241 213.568130,61.620159 214.075211,66.794746 
	C209.140015,66.794746 204.229172,66.794746 199.019012,66.497696 
z"/>
<path fill="#FAEBEC" opacity="1.000000" stroke="none" 
	d="
M80.427933,64.009560 
	C82.740463,74.163910 77.036385,80.358490 67.019196,81.544060 
	C64.053307,81.895088 60.041466,77.861794 57.367599,75.027504 
	C54.446579,71.931236 54.007763,67.712021 55.827168,63.577812 
	C58.177689,58.236759 62.166252,55.026428 68.091957,55.059666 
	C73.984154,55.092712 78.053719,58.154572 80.427933,64.009560 
z"/>
</svg>